<?xml version="1.0" encoding="UTF-8"?>
<svg version="1.1" xmlns="http://www.w3.org/2000/svg" width="512" height="512">
<path d="M0 0 C0.9075 0.68320312 1.815 1.36640625 2.75 2.0703125 C39.12834127 30.54502605 61.25326602 72.14074861 68.3125 117.4375 C73.0231525 161.82634084 63.82253901 209.30580214 35.37109375 244.6953125 C33.80368354 246.82238401 33.80368354 246.82238401 34.1547699 248.86322021 C35.2916941 251.73741583 36.95830155 253.31763231 39.15258789 255.49316406 C40.03342545 256.37377502 40.914263 257.25438599 41.8217926 258.16168213 C42.78858791 259.11315825 43.75554631 260.06446868 44.72265625 261.015625 C45.70837097 261.99574256 46.69342397 262.97652603 47.67784119 263.95794678 C50.26711849 266.53578484 52.86527882 269.10448579 55.46539307 271.67138672 C58.11842106 274.29369405 60.7629478 276.92454378 63.40820312 279.5546875 C68.59718647 284.71152295 73.79558392 289.85873515 79 295 C80.08410156 294.67644531 81.16820312 294.35289062 82.28515625 294.01953125 C89.19515381 292.12309659 94.73289556 292.7156223 101 296 C107.34815334 300.87288738 112.93047525 306.77673187 118.58129883 312.42016602 C119.96570663 313.79712646 119.96570663 313.79712646 121.37808228 315.2019043 C123.88642268 317.69725226 126.39153453 320.19581545 128.89562058 322.69543195 C130.46313551 324.25999903 132.03122852 325.82398451 133.59949303 327.38780022 C138.51556618 332.29024276 143.42966608 337.19465036 148.34086782 342.10197312 C153.99439028 347.75100398 159.65441553 353.39341178 165.32011968 359.03022438 C169.71370874 363.40218883 174.10150817 367.77990903 178.48496646 372.16203064 C181.09762747 374.77364562 183.71264198 377.38279335 186.33371925 379.98596382 C189.252741 382.88542305 192.15966806 385.79672405 195.06567383 388.70922852 C195.9306398 389.56497971 196.79560577 390.4207309 197.68678284 391.30241394 C203.79834607 397.45695724 207.57099461 402.42292992 208.25 411.25 C207.65246593 420.21301111 203.79258171 425.05098072 197.69091797 431.26513672 C195.61487396 433.39513509 193.57845768 435.56123509 191.53515625 437.72265625 C189.87937251 439.44180908 188.22179758 441.15923842 186.5625 442.875 C185.38300781 444.12470581 185.38300781 444.12470581 184.1796875 445.3996582 C178.14140309 451.54461065 171.77044101 455.93328476 162.9375 456.5 C152.7047654 455.20060513 146.7121606 449.43696608 139.66259766 442.30957031 C138.66225165 441.31601174 137.6608478 440.3235173 136.65847778 439.33200073 C133.95708585 436.65327179 131.27159257 433.9591272 128.58948183 431.26110935 C125.77170396 428.43060837 122.9416734 425.61239944 120.11361694 422.79217529 C115.36896452 418.05659932 110.63490632 413.31062441 105.90673828 408.55859375 C100.44976153 403.07439401 94.97498481 397.60845998 89.490646 392.1516335 C84.77037865 387.4540946 80.05997297 382.7468338 75.35759389 378.03138804 C72.55421913 375.22024137 69.74763077 372.41252688 66.93208694 369.61356354 C64.28582882 366.98180586 61.6522094 364.33800721 59.02762985 361.68463516 C57.60882909 360.25612869 56.17777721 358.83982245 54.74633789 357.42398071 C48.8953434 351.47586162 45.0199441 346.5594337 44.6875 337.9375 C44.99740052 334.03275349 45.87392645 330.73712856 47 327 C41.2165298 321.10080371 35.4197677 315.2151378 29.60543442 309.34637356 C26.90616861 306.62098674 24.21176002 303.8911341 21.52783203 301.15063477 C18.93868499 298.50725773 16.33759868 295.87619702 13.72769928 293.25331306 C12.73293226 292.24928997 11.74258512 291.24086819 10.75673676 290.22808647 C9.37783168 288.81301926 7.9817712 287.41472996 6.58496094 286.01733398 C5.79442322 285.21569321 5.0038855 284.41405243 4.18939209 283.58811951 C2.16690537 281.76762625 2.16690537 281.76762625 -0.09442139 282.12586975 C-3.1974644 283.5493029 -5.90551278 285.54381301 -8.6875 287.5 C-29.56985535 301.71309466 -52.20593465 310.38198185 -77 315 C-78.94132812 315.36931641 -78.94132812 315.36931641 -80.921875 315.74609375 C-125.71893539 322.71559349 -173.59342819 311.38435899 -210.2109375 284.65625 C-217.14068797 279.4675512 -223.71740946 273.96214929 -230 268 C-230.70938721 267.33145996 -230.70938721 267.33145996 -231.43310547 266.64941406 C-264.47793601 235.3143551 -282.48649277 191.15171063 -284.22265625 145.9765625 C-285.43291274 96.48790298 -266.56845584 52.03507476 -233.2890625 16.0703125 C-172.43611395 -46.92408879 -68.94091437 -53.008096 0 0 Z " fill="#CFE0F3" transform="translate(294,46)"/>
<path d="M0 0 C23.25941561 19.97614 39.97769509 43.84693731 47.5 73.875 C47.81710937 75.09960938 48.13421875 76.32421875 48.4609375 77.5859375 C53.15726326 97.96685344 52.1240127 120.81432693 46.5 140.875 C46.31808105 141.5448291 46.13616211 142.2146582 45.94873047 142.90478516 C40.783095 161.4207493 30.87706056 178.28855523 18.5 192.875 C17.76136719 193.76058594 17.02273438 194.64617187 16.26171875 195.55859375 C-4.25148639 219.2276766 -37.09913863 236.33691718 -68.5 238.875 C-85.21389366 239.80159657 -101.32565791 239.37526848 -117.5 234.875 C-118.1712793 234.69308105 -118.84255859 234.51116211 -119.53417969 234.32373047 C-151.73855856 225.33702225 -181.28732736 202.70510396 -197.8125 173.6875 C-199.06154161 171.42667346 -200.28172119 169.15277073 -201.5 166.875 C-201.96019531 166.070625 -202.42039062 165.26625 -202.89453125 164.4375 C-207.43271776 156.1391018 -209.82665384 146.90160611 -212.5 137.875 C-213.04720703 136.07675781 -213.04720703 136.07675781 -213.60546875 134.2421875 C-222.4817913 100.83000392 -213.63925405 65.48847428 -197.5 35.875 C-180.10727423 6.50807784 -150.14596543 -14.9790486 -117.5 -24.125 C-112.21355447 -25.40598747 -106.88080624 -26.33185889 -101.5 -27.125 C-99.62634766 -27.40150391 -99.62634766 -27.40150391 -97.71484375 -27.68359375 C-63.26596575 -31.82578512 -27.25896682 -21.42063567 0 0 Z " fill="#FEFEFE" transform="translate(269.5,81.125)"/>
<path d="M0 0 C1.36638549 -0.01645276 2.73268879 -0.04360022 4.09863281 -0.08203125 C12.95372816 -0.32935025 20.17114683 -0.00246188 27.50561523 5.35009766 C29.75952148 7.73681641 29.75952148 7.73681641 31.06811523 10.03759766 C31.5231543 10.80458984 31.97819336 11.57158203 32.44702148 12.36181641 C34.65013948 16.49977603 34.62005754 19.84823718 34.56811523 24.47509766 C34.56360352 25.22919922 34.5590918 25.98330078 34.55444336 26.76025391 C34.54265023 28.62356892 34.52471465 30.48684321 34.50561523 32.35009766 C35.25133789 32.32915039 35.99706055 32.30820313 36.76538086 32.28662109 C40.17865248 32.20293132 43.59170747 32.15126972 47.00561523 32.10009766 C48.17866211 32.06658203 49.35170898 32.03306641 50.56030273 31.99853516 C58.86584044 31.90521451 64.43864117 32.78618136 70.74780273 38.31494141 C71.28663086 38.96591797 71.82545898 39.61689453 72.38061523 40.28759766 C72.93491211 40.93599609 73.48920898 41.58439453 74.06030273 42.25244141 C77.25347995 46.88686347 77.76477181 50.88556064 77.81201172 56.46020508 C77.82033524 57.15688293 77.82865875 57.85356079 77.8372345 58.5713501 C77.86125452 60.86614644 77.87009829 63.16065781 77.87670898 65.45556641 C77.88568406 67.06114278 77.89480605 68.66671834 77.90406799 70.27229309 C77.92054071 73.63719712 77.92825449 77.0020019 77.93115234 80.36694336 C77.9365229 84.65629719 77.97415433 88.94470334 78.01989651 93.2337904 C78.04980436 96.55147103 78.05687892 99.86892769 78.05787849 103.18673134 C78.06205655 104.76663854 78.07439279 106.34654792 78.09539604 107.92632103 C78.20452656 116.84739317 78.13526589 124.9023583 72.50561523 132.35009766 C67.19811851 137.34618424 62.94346261 139.46047742 55.63665771 139.49726868 C54.65826431 139.50442398 53.67987091 139.51157928 52.67182922 139.51895142 C51.07119881 139.52298477 51.07119881 139.52298477 49.43823242 139.52709961 C48.3093309 139.53367081 47.18042938 139.540242 46.01731873 139.54701233 C42.27904189 139.56673328 38.54080519 139.57840489 34.80249023 139.58837891 C32.88675579 139.5944922 32.88675579 139.5944922 30.93231964 139.60072899 C24.87000671 139.61943445 18.80771806 139.6340018 12.74538398 139.64234096 C5.76165841 139.65210782 -1.22174974 139.67841774 -8.20536351 139.71884185 C-14.26553494 139.75270961 -20.32555296 139.76449153 -26.38582611 139.76854515 C-28.95820011 139.77341461 -31.53057062 139.7850387 -34.10288239 139.80358315 C-37.7053196 139.82794117 -41.3069294 139.82701512 -44.90942383 139.82006836 C-46.49790886 139.83928345 -46.49790886 139.83928345 -48.1184845 139.85888672 C-56.11001103 139.80281596 -61.53608072 138.24266161 -67.30688477 132.60009766 C-73.18877914 123.86128316 -72.96872359 115.34384623 -72.96313477 105.17041016 C-72.97024817 103.59153986 -72.97794887 102.01267211 -72.98620605 100.43380737 C-72.99960674 97.13385828 -73.00123971 93.83414826 -72.99536133 90.53417969 C-72.9894702 86.32893215 -73.0200519 82.12484111 -73.06047821 77.91981697 C-73.08647105 74.66130517 -73.08922221 71.40306757 -73.08558655 68.1444664 C-73.08726708 66.59527558 -73.09680569 65.0460706 -73.11473083 63.49698257 C-73.20706425 54.53189897 -72.86630863 46.89522092 -67.49438477 39.35009766 C-65.14282227 37.09619141 -65.14282227 37.09619141 -62.86938477 35.78759766 C-61.73629883 35.10503906 -61.73629883 35.10503906 -60.58032227 34.40869141 C-56.74119445 32.46036999 -53.76314117 32.23171348 -49.51391602 32.25244141 C-48.35053711 32.25566406 -47.1871582 32.25888672 -45.98852539 32.26220703 C-44.77358398 32.27058594 -43.55864258 32.27896484 -42.30688477 32.28759766 C-41.0803418 32.29210937 -39.85379883 32.29662109 -38.59008789 32.30126953 C-35.55813808 32.313067 -32.52628571 32.32952845 -29.49438477 32.35009766 C-29.55239258 31.29951172 -29.61040039 30.24892578 -29.67016602 29.16650391 C-30.21740432 15.20444209 -30.21740432 15.20444209 -26.19360352 9.18603516 C-18.53395911 0.91009753 -10.76736145 0.09466375 0 0 Z " fill="#0E3C8D" transform="translate(189.494384765625,116.64990234375)"/>
<path d="M0 0 C5.43337129 4.83815569 10.62425599 9.89045869 15.77141285 15.03088474 C17.15582066 16.40784519 17.15582066 16.40784519 18.5681963 17.81262302 C21.0765367 20.30797098 23.58164855 22.80653418 26.08573461 25.30615067 C27.65324953 26.87071776 29.22134254 28.43470323 30.78960705 29.99851894 C35.7056802 34.90096148 40.6197801 39.80536909 45.53098184 44.71269184 C51.1845043 50.36172271 56.84452955 56.00413051 62.5102337 61.64094311 C66.90382276 66.01290756 71.29162219 70.39062776 75.67508048 74.77274936 C78.28774149 77.38436435 80.902756 79.99351208 83.52383327 82.59668255 C86.44285503 85.49614178 89.34978208 88.40744278 92.25578785 91.31994724 C93.12075382 92.17569843 93.9857198 93.03144962 94.87689686 93.91313267 C100.98846009 100.06767596 104.76110863 105.03364865 105.44011402 113.86071873 C104.84257995 122.82372984 100.98269573 127.66169944 94.88103199 133.87585545 C92.80498798 136.00585382 90.7685717 138.17195381 88.72527027 140.33337498 C87.06948653 142.05252781 85.4119116 143.76995714 83.75261402 145.48571873 C82.9662859 146.31885593 82.17995777 147.15199314 81.36980152 148.01037693 C75.33151711 154.15532938 68.96055503 158.54400349 60.12761402 159.11071873 C49.89487942 157.81132386 43.90227462 152.04768481 36.85271168 144.92028904 C35.85236568 143.92673047 34.85096182 142.93423603 33.8485918 141.94271946 C31.14719987 139.26399051 28.46170659 136.56984593 25.77959585 133.87182808 C22.96181798 131.0413271 20.13178742 128.22311816 17.30373096 125.40289402 C12.55907855 120.66731805 7.82502034 115.92134314 3.0968523 111.16931248 C-2.36012445 105.68511273 -7.83490117 100.21917871 -13.31923997 94.76235223 C-18.03950732 90.06481333 -22.74991301 85.35755252 -27.45229208 80.64210677 C-30.25566685 77.83096009 -33.06225521 75.02324561 -35.87779903 72.22428226 C-38.52405716 69.59252459 -41.15767658 66.94872594 -43.78225613 64.29535389 C-45.20105689 62.86684742 -46.63210877 61.45054118 -48.06354809 60.03469944 C-53.92309955 54.07788133 -57.73910278 49.1592959 -58.18488598 40.54821873 C-56.96430415 27.73210951 -45.84522417 19.46460747 -37.24738598 10.86071873 C-36.32763988 9.92872654 -35.40789379 8.99673435 -34.4602766 8.03649998 C-33.11546215 6.68878513 -33.11546215 6.68878513 -31.74347973 5.31384373 C-30.93966869 4.50592381 -30.13585766 3.69800388 -29.30768871 2.86560154 C-20.63510912 -4.96353981 -9.89071935 -7.5921861 0 0 Z " fill="#0587E1" transform="translate(396.80988597869873,343.3892812728882)"/>
<path d="M0 0 C23.25941561 19.97614 39.97769509 43.84693731 47.5 73.875 C47.81710937 75.09960938 48.13421875 76.32421875 48.4609375 77.5859375 C53.15726326 97.96685344 52.1240127 120.81432693 46.5 140.875 C46.22712158 141.87974365 46.22712158 141.87974365 45.94873047 142.90478516 C40.783095 161.4207493 30.87706056 178.28855523 18.5 192.875 C17.76136719 193.76058594 17.02273438 194.64617187 16.26171875 195.55859375 C7.36479566 205.82427424 -4.25127617 215.79600373 -16.5 221.875 C-17.16 221.545 -17.82 221.215 -18.5 220.875 C-17.68917969 220.17117188 -16.87835938 219.46734375 -16.04296875 218.7421875 C10.44923014 195.30136176 25.84534288 163.95533781 28.33984375 128.71484375 C30.25862153 94.69163781 18.7353389 62.51771892 -3.5 36.875 C-4.35624137 35.79330572 -5.21080142 34.71027478 -6.0625 33.625 C-24.11785492 13.25485599 -50.92035826 0.25996628 -77.5 -4.125 C-78.50933594 -4.30804688 -79.51867187 -4.49109375 -80.55859375 -4.6796875 C-117.18580547 -8.81794532 -151.36300418 0.34858632 -180.1875 23.3125 C-185.2607805 27.55121488 -189.9121658 32.12167279 -194.5 36.875 C-195.51844543 37.89821567 -196.5388032 38.91953819 -197.5625 39.9375 C-198.201875 40.576875 -198.84125 41.21625 -199.5 41.875 C-198.15055552 37.06488339 -196.04509395 33.31227822 -193.125 29.3125 C-192.68800781 28.70897705 -192.25101562 28.1054541 -191.80078125 27.48364258 C-170.70544636 -1.02848524 -140.20692387 -20.56866031 -105.18359375 -26.58203125 C-103.96800781 -26.76121094 -102.75242187 -26.94039062 -101.5 -27.125 C-99.62634766 -27.40150391 -99.62634766 -27.40150391 -97.71484375 -27.68359375 C-63.26596575 -31.82578512 -27.25896682 -21.42063567 0 0 Z " fill="#EEF3F9" transform="translate(269.5,81.125)"/>
<path d="M0 0 C0.18433594 0.67804688 0.36867188 1.35609375 0.55859375 2.0546875 C2.25152825 7.48712621 4.13531634 11.5746139 8.04396057 15.75456238 C8.84744493 16.61727942 9.6509293 17.47999645 10.47876167 18.36885643 C14.56738639 22.63571154 18.69065651 26.86307685 22.85913086 31.05200195 C23.80990404 32.01070487 24.76050612 32.96957749 25.71095276 33.92860413 C28.79195004 37.03544905 31.8780624 40.13718452 34.96484375 43.23828125 C36.03601435 44.31482338 37.10718195 45.39136848 38.17834663 46.46791649 C42.63468691 50.94581382 47.09243661 55.42230018 51.55390072 59.89509296 C57.91028948 66.26774238 64.25800067 72.64876554 70.59404844 79.04164153 C75.0738644 83.5602454 79.56330713 88.06914142 84.05991846 92.57103127 C86.73574341 95.25049198 89.407305 97.93388914 92.06858635 100.6278019 C94.57018722 103.15964717 97.0836041 105.67915415 99.60622215 108.19005394 C100.95808624 109.54159509 102.29760143 110.90545378 103.63656616 112.26977539 C110.25618081 118.82267089 117.40483662 124.2424871 127 125 C125.02542457 127.35985844 123.02901093 129.68755739 121 132 C120.47019531 132.62132812 119.94039062 133.24265625 119.39453125 133.8828125 C114.16887069 139.61738538 107.78234142 143.0155576 99.9375 143.5 C89.7047654 142.20060513 83.7121606 136.43696608 76.66259766 129.30957031 C75.66225165 128.31601174 74.6608478 127.3235173 73.65847778 126.33200073 C70.95708585 123.65327179 68.27159257 120.9591272 65.58948183 118.26110935 C62.77170396 115.43060837 59.9416734 112.61239944 57.11361694 109.79217529 C52.36896452 105.05659932 47.63490632 100.31062441 42.90673828 95.55859375 C37.44976153 90.07439401 31.97498481 84.60845998 26.490646 79.1516335 C21.77037865 74.4540946 17.05997297 69.7468338 12.35759389 65.03138804 C9.55421913 62.22024137 6.74763077 59.41252688 3.93208694 56.61356354 C1.28582882 53.98180586 -1.3477906 51.33800721 -3.97237015 48.68463516 C-5.39117091 47.25612869 -6.82222279 45.83982245 -8.25366211 44.42398071 C-14.11321357 38.4671626 -17.9292168 33.54857717 -18.375 24.9375 C-17.57335162 16.52019199 -13.65197445 11.92738846 -8 6 C-7.4328125 5.39285156 -6.865625 4.78570312 -6.28125 4.16015625 C-2.2875 0 -2.2875 0 0 0 Z " fill="#0075D3" transform="translate(357,359)"/>
<path d="M0 0 C0.00142502 0.85920044 0.00285004 1.71840088 0.00431824 2.6036377 C0.02219236 10.7247267 0.06393615 18.84527381 0.13209057 26.9661026 C0.16629379 31.14055989 0.19146008 35.3146538 0.19555664 39.48925781 C0.19985405 43.52261065 0.22843464 47.55514473 0.27343178 51.58824158 C0.28636102 53.12226074 0.29073072 54.65637812 0.28615379 56.19044495 C0.17308961 68.03808537 0.17308961 68.03808537 6 78 C8.00868968 79.86091545 8.00868968 79.86091545 10.125 80.9375 C10.78757813 81.31777344 11.45015625 81.69804687 12.1328125 82.08984375 C15.37323166 83.66937861 17.98396469 84.12986061 21.53678894 84.15821838 C22.46646988 84.1680072 23.39615082 84.17779602 24.35400391 84.18788147 C25.37179932 84.19363693 26.38959473 84.1993924 27.43823242 84.20532227 C28.51156326 84.21522186 29.5848941 84.22512146 30.69075012 84.23532104 C34.24563374 84.26695941 37.80053073 84.29170281 41.35546875 84.31640625 C43.81741182 84.33697375 46.27935134 84.35797017 48.74128723 84.37937927 C55.22676727 84.43462096 61.71227929 84.48402104 68.19781494 84.53222656 C74.81354627 84.58242625 81.42923105 84.63812031 88.04492188 84.69335938 C101.02990791 84.80096661 114.01493366 84.90259243 127 85 C127.104849 91.64752343 126.25188031 94.92963273 122 100 C117.03676925 104.48684923 112.81620799 106.11350984 106.13104248 106.14717102 C104.66345238 106.15790398 104.66345238 106.15790398 103.16621399 106.16885376 C102.09912704 106.17154266 101.0320401 106.17423157 99.93261719 106.17700195 C98.80371567 106.18357315 97.67481415 106.19014435 96.51170349 106.19691467 C92.77342665 106.21663562 89.03518995 106.22830724 85.296875 106.23828125 C83.38114056 106.24439454 83.38114056 106.24439454 81.42670441 106.25063133 C75.36439147 106.26933679 69.30210282 106.28390414 63.23976874 106.2922433 C56.25604318 106.30201016 49.27263503 106.32832009 42.28902125 106.36874419 C36.22884982 106.40261195 30.16883181 106.41439388 24.10855865 106.41844749 C21.53618466 106.42331695 18.96381414 106.43494104 16.39150238 106.45348549 C12.78906517 106.47784352 9.18745537 106.47691746 5.58496094 106.4699707 C4.52597092 106.48278076 3.4669809 106.49559082 2.37590027 106.50878906 C-5.61562627 106.4527183 -11.04169596 104.89256395 -16.8125 99.25 C-22.69439437 90.5111855 -22.47433883 81.99374857 -22.46875 71.8203125 C-22.4758634 70.2414422 -22.4835641 68.66257445 -22.49182129 67.08370972 C-22.50522197 63.78376063 -22.50685495 60.48405061 -22.50097656 57.18408203 C-22.49508544 52.97883449 -22.52566713 48.77474345 -22.56609344 44.56971931 C-22.59208629 41.31120751 -22.59483745 38.05296991 -22.59120178 34.79436874 C-22.59288232 33.24517792 -22.60242092 31.69597295 -22.62034607 30.14688492 C-22.72474854 20.00996042 -22.11571722 11.38206515 -14.82421875 3.7109375 C-13.76654297 3.04964844 -13.76654297 3.04964844 -12.6875 2.375 C-11.64142578 1.67503906 -11.64142578 1.67503906 -10.57421875 0.9609375 C-6.96277599 -0.38718832 -3.85073207 -0.06024039 0 0 Z " fill="#01286F" transform="translate(139,150)"/>
<path d="M0 0 C3.69543688 2.05283404 6.53830411 4.29369233 9.51489258 7.2878418 C10.37540726 8.14850754 11.23592194 9.00917328 12.12251282 9.8959198 C13.0372789 10.82100845 13.95204498 11.74609711 14.89453125 12.69921875 C15.85101713 13.65943872 16.80794846 14.61921516 17.76530457 15.5785675 C20.27349205 18.09436021 22.77561276 20.61610249 25.27648926 23.13916016 C27.83366221 25.71685878 30.39656633 28.28884532 32.95898438 30.86132812 C37.97825865 35.90199738 42.99114174 40.94897859 48 46 C46.90214766 49.29355703 46.19172921 49.9105618 43.58984375 52.04296875 C38.30518706 56.52802775 33.45050981 61.40306721 28.5625 66.3125 C27.19834961 67.67084961 27.19834961 67.67084961 25.80664062 69.05664062 C24.51209961 70.35311523 24.51209961 70.35311523 23.19140625 71.67578125 C22.01880249 72.8500769 22.01880249 72.8500769 20.82250977 74.0480957 C18.94470633 75.87430532 18.94470633 75.87430532 18 78 C14.46760977 76.49315032 12.2037834 74.44633388 9.50683594 71.73388672 C8.62622498 70.85312469 7.74561401 69.97236267 6.83831787 69.06491089 C5.88689569 68.10327649 4.93558397 67.1415328 3.984375 66.1796875 C3.00403871 65.19561893 2.02325832 64.21199258 1.04205322 63.22879028 C-1.53354467 60.64557286 -4.10307857 58.05640488 -6.67138672 55.46594238 C-9.29551067 52.8213238 -11.92533771 50.1823899 -14.5546875 47.54296875 C-19.7087167 42.36751928 -24.85635157 37.18576878 -30 32 C-28.2381778 28.14093856 -26.18106667 26.30336626 -22.8125 23.6875 C-15.11328891 17.53013353 -8.99878067 10.94424579 -2.8203125 3.2578125 C-1 1 -1 1 0 0 Z " fill="#9EB6D8" transform="translate(325,295)"/>
<path d="M0 0 C1.36638549 -0.01645276 2.73268879 -0.04360022 4.09863281 -0.08203125 C12.95372816 -0.32935025 20.17114683 -0.00246188 27.50561523 5.35009766 C29.75952148 7.73681641 29.75952148 7.73681641 31.06811523 10.03759766 C31.75067383 11.18808594 31.75067383 11.18808594 32.44702148 12.36181641 C34.65079987 16.50101639 34.61961121 19.85322018 34.56811523 24.47509766 C34.54749023 27.07384766 34.52686523 29.67259766 34.50561523 32.35009766 C27.57561523 32.35009766 20.64561523 32.35009766 13.50561523 32.35009766 C13.50561523 28.72009766 13.50561523 25.09009766 13.50561523 21.35009766 C6.24561523 21.35009766 -1.01438477 21.35009766 -8.49438477 21.35009766 C-8.49438477 24.98009766 -8.49438477 28.61009766 -8.49438477 32.35009766 C-15.42438477 32.35009766 -22.35438477 32.35009766 -29.49438477 32.35009766 C-30.21494502 15.2007637 -30.21494502 15.2007637 -26.19360352 9.18603516 C-18.53395911 0.91009753 -10.76736145 0.09466375 0 0 Z " fill="#032A70" transform="translate(189.494384765625,116.64990234375)"/>
<path d="M0 0 C3.69543688 2.05283404 6.53830411 4.29369233 9.51489258 7.2878418 C10.37540726 8.14850754 11.23592194 9.00917328 12.12251282 9.8959198 C13.0372789 10.82100845 13.95204498 11.74609711 14.89453125 12.69921875 C15.85101713 13.65943872 16.80794846 14.61921516 17.76530457 15.5785675 C20.27349205 18.09436021 22.77561276 20.61610249 25.27648926 23.13916016 C27.83366221 25.71685878 30.39656633 28.28884532 32.95898438 30.86132812 C37.97825865 35.90199738 42.99114174 40.94897859 48 46 C46.88066638 49.35800085 45.97594556 50.1056451 43.3125 52.3125 C40.61625658 54.58760665 38.06776258 56.8922017 35.625 59.4375 C33 62 33 62 31 62 C29.57185364 60.55184937 29.57185364 60.55184937 27.90551758 58.53662109 C23.98768044 53.93228561 19.79960873 49.67224852 15.51171875 45.4140625 C14.72730911 44.63106781 13.94289948 43.84807312 13.13471985 43.04135132 C10.65467434 40.56685277 8.17115816 38.09587196 5.6875 35.625 C4.00172085 33.94424335 2.3161718 32.26325589 0.63085938 30.58203125 C-3.05727527 26.90368227 -6.74759255 23.22753976 -10.43989563 19.55337524 C-11.6280357 18.37035992 -12.81441953 17.18558047 -14 16 C-13.24074219 15.18015625 -12.48148437 14.3603125 -11.69921875 13.515625 C-10.69521546 12.42717284 -9.6913146 11.33862618 -8.6875 10.25 C-8.18798828 9.71117187 -7.68847656 9.17234375 -7.17382812 8.6171875 C-4.62043007 5.84396048 -2.18903551 3.07809771 0 0 Z " fill="#B4CBE5" transform="translate(325,295)"/>
<path d="M0 0 C6.6 0 13.2 0 20 0 C20 3.3 20 6.6 20 10 C13.4 10 6.8 10 0 10 C0 6.7 0 3.4 0 0 Z " fill="#FFFFFF" transform="translate(182,139)"/>
</svg>
